<svg id="Layer_1" data-name="Layer 1" xmlns="http://www.w3.org/2000/svg" viewBox="0 0 50 50"><defs><style>.cls-1{fill:#ccc;}.cls-2{fill:none;}</style></defs><title>ico_cp_b_deuda_gris</title><path class="cls-1" d="M7.6,43.54H42.4L25,8.5ZM45,46.81H5A1.63,1.63,0,0,1,3.5,44.45l20-40.35a1.63,1.63,0,0,1,2.93,0l20,40.35A1.63,1.63,0,0,1,45,46.81"/><path class="cls-1" d="M16.32,37.24c0-2.55,1.56-3.9,3.42-3.9a3.25,3.25,0,0,1,2.36.78v.48h-.28a2.6,2.6,0,0,0-2.05-.78c-1.61,0-2.84,1.16-2.84,3.4s1.08,3.49,2.75,3.49a3,3,0,0,0,2.3-.92h.26v.44a3.52,3.52,0,0,1-2.56,1c-2,0-3.35-1.4-3.35-3.95"/><path class="cls-1" d="M23.33,40.76a.42.42,0,0,1,.42-.43.44.44,0,0,1,.43.43.42.42,0,0,1-.43.42.41.41,0,0,1-.42-.42"/><path class="cls-1" d="M28.76,37.41h1.42c1.4,0,2.16-.47,2.16-1.8s-.83-1.75-2.16-1.75H28.76Zm-.59-4h2c1.66,0,2.75.58,2.75,2.22s-1,2.3-2.76,2.3H28.76v3.25h-.59Z"/><path class="cls-1" d="M32.83,40.76a.42.42,0,0,1,.42-.43.44.44,0,0,1,.43.43.42.42,0,0,1-.43.42.41.41,0,0,1-.42-.42"/><path class="cls-1" d="M30.8,26.58a.29.29,0,0,0,0-.17.29.29,0,0,0-.28-.24h0a.29.29,0,0,0-.18.1l0,.07-3.15,4.82h.68l3-4.54Z"/><path class="cls-1" d="M28.23,27.33a.52.52,0,1,1-.52-.52.52.52,0,0,1,.52.52m-1.67,0a1.15,1.15,0,1,0,1.15-1.15,1.15,1.15,0,0,0-1.15,1.15"/><path class="cls-1" d="M30.42,30.56a.52.52,0,1,1,.52-.52.52.52,0,0,1-.52.52m0-1.67A1.15,1.15,0,1,0,31.56,30a1.15,1.15,0,0,0-1.15-1.15"/><path class="cls-1" d="M23.38,27.07h-3.9l.35-1.67h3.69Zm3.68,3.13.27-.42H25.94v-.42H27.6l.14-.23h0l-.21,0-.2,0L27.1,29a1.69,1.69,0,0,1-.22-.07v0h-.94v-.42h.42v0c0-.06-.1-.14-.14-.21a.89.89,0,0,1-.07-.23v0h-.21v-.42h.21v-.63h-.35l-.14-1.67h3.68l.2,1,.21-.34,0-.09,0,0a.85.85,0,0,1,.33-.23l-.26-.89H25.51l0-.21H23.7l0,.21H19.27l-.83,2.92h4.79v.42H18.44v.42h4.79v.42H18.44v.42h4.79v.42H18.44v.42h4.79v.42H18.44V31h4.79v.21h2.71v-.28l.59,0,.25-.37h-.84v-.42Z"/><rect class="cls-2" width="50" height="50"/></svg>