<svg id="Layer_1" data-name="Layer 1" xmlns="http://www.w3.org/2000/svg" viewBox="0 0 50 50"><defs><style>.cls-1{fill:none;}.cls-2{fill:#88bee8;}</style></defs><title>ico_cp_b_renta</title><rect class="cls-1" width="50" height="50"/><path class="cls-2" d="M7.6,43.54H42.4L25,8.5ZM45,46.81H5A1.63,1.63,0,0,1,3.5,44.45l20-40.35a1.63,1.63,0,0,1,2.93,0l20,40.35A1.63,1.63,0,0,1,45,46.81"/><path class="cls-2" d="M16.32,37.24c0-2.55,1.56-3.9,3.42-3.9a3.25,3.25,0,0,1,2.36.78v.48h-.28a2.6,2.6,0,0,0-2.05-.78c-1.61,0-2.84,1.16-2.84,3.4s1.08,3.49,2.75,3.49a3,3,0,0,0,2.3-.92h.26v.44a3.52,3.52,0,0,1-2.56,1c-2,0-3.35-1.4-3.35-3.95"/><path class="cls-2" d="M23.33,40.76a.42.42,0,0,1,.42-.43.44.44,0,0,1,.43.43.42.42,0,0,1-.43.42.41.41,0,0,1-.42-.42"/><path class="cls-2" d="M28.76,37.41h1.42c1.4,0,2.16-.47,2.16-1.8s-.83-1.75-2.16-1.75H28.76Zm-.59-4h2c1.66,0,2.75.58,2.75,2.22s-1,2.3-2.76,2.3H28.76v3.25h-.59Z"/><path class="cls-2" d="M32.83,40.76a.42.42,0,0,1,.42-.43.44.44,0,0,1,.43.43.42.42,0,0,1-.43.42.41.41,0,0,1-.42-.42"/><path class="cls-2" d="M25,23.36H21.39L25,21.21l3.61,2.15Zm3.33,6.7H27.22l-.28-5.9h1.67Zm-2.78,0H24.44l-.28-5.9h1.67Zm-2.78,0H21.67l-.28-5.9h1.67Zm7.22,0-.28-5.9h1.94l-6.67-4-6.67,4h1.94L20,30.06h-.56l-1.11,1.61H31.67l-1.11-1.61Z"/></svg>