<svg id="Layer_1" data-name="Layer 1" xmlns="http://www.w3.org/2000/svg" viewBox="0 0 50 50"><defs><style>.cls-1{fill:none;}.cls-2{fill:#ccc;}</style></defs><title>ico_cp_a_divisas_gris</title><rect class="cls-1" width="50" height="50"/><path class="cls-2" d="M15,42.35H35L45,25,35,7.65H15L5,25ZM35.9,45.41H14.1a1.53,1.53,0,0,1-1.33-.77L1.87,25.77a1.53,1.53,0,0,1,0-1.53L12.77,5.35a1.53,1.53,0,0,1,1.33-.77H35.9a1.53,1.53,0,0,1,1.33.77l10.9,18.88a1.53,1.53,0,0,1,0,1.53L37.23,44.65a1.53,1.53,0,0,1-1.33.77"/><path class="cls-2" d="M16.32,33.9c0-2.55,1.56-3.9,3.42-3.9a3.25,3.25,0,0,1,2.36.78v.48h-.28a2.6,2.6,0,0,0-2.05-.78c-1.61,0-2.84,1.16-2.84,3.4s1.08,3.49,2.75,3.49a3,3,0,0,0,2.3-.92h.26v.44a3.52,3.52,0,0,1-2.56,1c-2,0-3.35-1.4-3.35-3.95"/><path class="cls-2" d="M23.33,37.43a.42.42,0,0,1,.42-.43.44.44,0,0,1,.43.43.42.42,0,0,1-.43.42.41.41,0,0,1-.42-.42"/><path class="cls-2" d="M28.76,34.08h1.42c1.4,0,2.16-.47,2.16-1.8s-.83-1.75-2.16-1.75H28.76Zm-.59-4h2c1.66,0,2.75.58,2.75,2.22s-1,2.3-2.76,2.3H28.76v3.25h-.59Z"/><path class="cls-2" d="M32.83,37.43a.42.42,0,0,1,.42-.43.44.44,0,0,1,.43.43.42.42,0,0,1-.43.42.41.41,0,0,1-.42-.42"/><path class="cls-2" d="M33.47,24.27a2,2,0,0,0-1.32-.5h-.5a1.07,1.07,0,0,1,0-2.13h.52a1.1,1.1,0,0,1,1,1.22h1a2,2,0,0,0-1.9-2.08s0-.66,0-.66h-.61v.66A2,2,0,0,0,30,23.92a2,2,0,0,0,.32.36,1.92,1.92,0,0,0,1.29.41h.52a1.08,1.08,0,0,1,1,1.09,1,1,0,0,1-1,1h-.52c-.54,0-1-.67-1-1.22h-1a2.15,2.15,0,0,0,2,2.16v.58h.61v-.61a1.83,1.83,0,0,0,1.92-2,2,2,0,0,0-.69-1.5"/><path class="cls-2" d="M28.14,24.38h-.5a1.21,1.21,0,0,1-1.17-1v-.47h1.22v-.61H26.47v-.91h1.22v-.61H26.47v-.61c0-.61.63-.91,1.17-.91h.5a1.13,1.13,0,0,1,1,.91h1a2,2,0,0,0-2-1.82h-.5a2.06,2.06,0,0,0-2.08,2v.47H25v.61h.61v.91H25v.61h.61v.47a2.08,2.08,0,0,0,2.08,2h.5a2,2,0,0,0,.77-.17l.18-.09a2,2,0,0,0,.53-.42,2.53,2.53,0,0,1-.56-.9,1,1,0,0,1-.91.66"/><path class="cls-2" d="M24.65,27.08a14,14,0,0,1-1.92-2.39h1.92Zm-5.52-2.39h2.53a13.79,13.79,0,0,0,1.62,2.26,8.2,8.2,0,0,1-4.14-2.26m-.78-.91A8.17,8.17,0,0,1,17,21h3.33a10.66,10.66,0,0,0,.84,2.74Zm-1.61-4.86A8.19,8.19,0,0,1,17,17.09h3.49a11.42,11.42,0,0,0-.23,2.4c0,.21,0,.42,0,.63h-3.4a8.23,8.23,0,0,1-.1-1.22m2.1-5.47h2.91a14.53,14.53,0,0,0-1.09,2.74H17.22a8.21,8.21,0,0,1,1.63-2.74m4.56-2.59a17.08,17.08,0,0,0-1.14,1.67H19.8a8.18,8.18,0,0,1,3.6-1.67m1.25,1.67H23.34a16.16,16.16,0,0,1,1.31-1.76Zm0,3.65h-3a14.26,14.26,0,0,1,1.18-2.74h1.85Zm.91-2.74h1.92a14.15,14.15,0,0,1,1.18,2.74h-3.1Zm0-2.71h0a15.78,15.78,0,0,1,1.35,1.8H25.56Zm4.54,1.8H28A17.1,17.1,0,0,0,26.95,11a8.18,8.18,0,0,1,3.15,1.58m2.59,3.65H29.61a14.47,14.47,0,0,0-1.09-2.74h2.54a8.21,8.21,0,0,1,1.63,2.74M27.06,26.84c.18-.21.35-.43.52-.64a3,3,0,0,1-1-.2c-.3.37-.63.73-1,1.09h0V25.37a2.86,2.86,0,0,1-.88-1.6H22.21A9.92,9.92,0,0,1,21.28,21H24v-.91H21.16c0-.21,0-.43,0-.64a10.41,10.41,0,0,1,.25-2.4h3.27v2.74h0a2.88,2.88,0,0,1,.87-1.59V17.09h3.33c0,.14.06.29.08.43a3,3,0,0,1,1,.53c0-.33-.09-.65-.15-1H33a8.18,8.18,0,0,1,.21,1.82c0,.1,0,.2,0,.3h0l0,.82a2.67,2.67,0,0,1,.81.47,9.22,9.22,0,0,0,.14-1.59,9.12,9.12,0,0,0-8-9.05S25.3,9.79,25,9.79A9.12,9.12,0,1,0,29,27.07a3,3,0,0,1-.35-.85,8.06,8.06,0,0,1-1.62.63"/></svg>