<svg id="Layer_1" data-name="Layer 1" xmlns="http://www.w3.org/2000/svg" viewBox="0 0 50 50"><defs><style>.cls-1{fill:none;}.cls-2{fill:#009ee5;}</style></defs><title>ico_lp_b_renta</title><rect class="cls-1" width="50" height="50"/><path class="cls-2" d="M7.6,43.54H42.4L25,8.5ZM45,46.81H5A1.64,1.64,0,0,1,3.58,46a1.62,1.62,0,0,1-.08-1.58l20-40.35a1.63,1.63,0,0,1,2.92,0l20,40.35A1.62,1.62,0,0,1,46.42,46a1.64,1.64,0,0,1-1.39.78"/><path class="cls-2" d="M25,23.36H21.39L25,21.21l3.61,2.15Zm3.33,6.7H27.22l-.28-5.9h1.67Zm-2.77,0H24.44l-.27-5.9h1.66Zm-2.78,0H21.67l-.28-5.9h1.67Zm7.22,0-.28-5.9h2l-6.67-4-6.67,4h2L20,30.06h-.56l-1.11,1.61H31.67l-1.11-1.61Z"/><polygon class="cls-2" points="16.96 41.14 16.96 33.38 17.54 33.38 17.54 40.65 21.59 40.65 21.59 41.14 16.96 41.14"/><path class="cls-2" d="M22.69,40.76a.42.42,0,0,1,.42-.43.44.44,0,0,1,.43.43.42.42,0,0,1-.43.42.4.4,0,0,1-.42-.42"/><path class="cls-2" d="M28.12,37.41h1.42c1.4,0,2.16-.46,2.16-1.79s-.83-1.75-2.16-1.75H28.12Zm-.59-4h2c1.66,0,2.75.57,2.75,2.22s-1,2.29-2.76,2.29H28.12v3.25h-.59Z"/><path class="cls-2" d="M32.19,40.76a.42.42,0,0,1,.42-.43.44.44,0,0,1,.43.43.42.42,0,0,1-.43.42.4.4,0,0,1-.42-.42"/></svg>