<svg id="Layer_1" data-name="Layer 1" xmlns="http://www.w3.org/2000/svg" viewBox="0 0 50 50"><defs><style>.cls-1{fill:none;}.cls-2{fill:#bababa;}</style></defs><title>ico_lp_b_deuda_gris</title><rect class="cls-1" width="50" height="50"/><path class="cls-2" d="M7.6,43.54H42.4L25,8.5ZM45,46.81H5A1.64,1.64,0,0,1,3.58,46a1.62,1.62,0,0,1-.08-1.58l20-40.35a1.63,1.63,0,0,1,2.92,0l20,40.35A1.62,1.62,0,0,1,46.42,46a1.64,1.64,0,0,1-1.39.78"/><path class="cls-2" d="M30.8,26.58a.29.29,0,0,0,0-.16.29.29,0,0,0-.28-.24h-.05a.27.27,0,0,0-.18.11l0,.06-3.14,4.83h.68l3-4.54Z"/><path class="cls-2" d="M28.23,27.33a.52.52,0,1,1-.52-.52.52.52,0,0,1,.52.52m-1.67,0a1.15,1.15,0,1,0,1.15-1.15,1.15,1.15,0,0,0-1.15,1.15"/><path class="cls-2" d="M30.42,30.56A.52.52,0,0,1,29.9,30a.52.52,0,0,1,.52-.52.52.52,0,0,1,.52.52.53.53,0,0,1-.52.52m0-1.67A1.15,1.15,0,1,0,31.56,30a1.14,1.14,0,0,0-1.14-1.15"/><path class="cls-2" d="M23.38,27.07h-3.9l.35-1.67h3.68Zm3.67,3.12.28-.42H25.94v-.41H27.6l.13-.24h0l-.21,0-.2,0L27.1,29a.9.9,0,0,1-.22-.07v0h-.94v-.42h.41v0c0-.06-.09-.14-.14-.21a1,1,0,0,1-.06-.23v.05h-.21v-.42h.21v-.62h-.36l-.14-1.67h3.68l.21,1,.21-.34.05-.09,0,0a.82.82,0,0,1,.33-.23l-.25-.9H25.51l0-.2H23.7l-.05.2H19.27l-.83,2.92h4.79v.42H18.44v.41h4.79v.42H18.44v.42h4.79v.41H18.44v.42h4.79v.42H18.44V31h4.79v.21h2.71V31l.59,0,.25-.36h-.84v-.42Z"/><polygon class="cls-2" points="16.96 41.14 16.96 33.38 17.54 33.38 17.54 40.65 21.59 40.65 21.59 41.14 16.96 41.14"/><path class="cls-2" d="M22.69,40.76a.42.42,0,0,1,.42-.43.44.44,0,0,1,.43.43.42.42,0,0,1-.43.42.4.4,0,0,1-.42-.42"/><path class="cls-2" d="M28.12,37.41h1.42c1.4,0,2.16-.46,2.16-1.79s-.83-1.75-2.16-1.75H28.12Zm-.59-4h2c1.66,0,2.75.57,2.75,2.22s-1,2.29-2.76,2.29H28.12v3.25h-.59Z"/><path class="cls-2" d="M32.19,40.76a.42.42,0,0,1,.42-.43.44.44,0,0,1,.43.43.42.42,0,0,1-.43.42.4.4,0,0,1-.42-.42"/></svg>