<svg id="Layer_1" data-name="Layer 1" xmlns="http://www.w3.org/2000/svg" viewBox="0 0 50 50"><defs><style>.cls-1{fill:none;}.cls-2{fill:#ccc;}</style></defs><title>ico_cp_b_divisas_gris</title><rect class="cls-1" width="50" height="50"/><path class="cls-2" d="M7.6,43.54H42.4L25,8.5ZM45,46.81H5A1.63,1.63,0,0,1,3.5,44.45l20-40.35a1.63,1.63,0,0,1,2.93,0l20,40.35A1.63,1.63,0,0,1,45,46.81"/><path class="cls-2" d="M16.32,37.24c0-2.55,1.56-3.9,3.42-3.9a3.25,3.25,0,0,1,2.36.78v.48h-.28a2.6,2.6,0,0,0-2.05-.78c-1.61,0-2.84,1.16-2.84,3.4s1.08,3.49,2.75,3.49a3,3,0,0,0,2.3-.92h.26v.44a3.52,3.52,0,0,1-2.56,1c-2,0-3.35-1.4-3.35-3.95"/><path class="cls-2" d="M23.33,40.76a.42.42,0,0,1,.42-.43.44.44,0,0,1,.43.43.42.42,0,0,1-.43.42.41.41,0,0,1-.42-.42"/><path class="cls-2" d="M28.76,37.41h1.42c1.4,0,2.16-.47,2.16-1.8s-.83-1.75-2.16-1.75H28.76Zm-.59-4h2c1.66,0,2.75.58,2.75,2.22s-1,2.3-2.76,2.3H28.76v3.25h-.59Z"/><path class="cls-2" d="M32.83,40.76a.42.42,0,0,1,.42-.43.44.44,0,0,1,.43.43.42.42,0,0,1-.43.42.41.41,0,0,1-.42-.42"/><path class="cls-2" d="M31.16,28.72a1.45,1.45,0,0,0-1-.36h-.36a.78.78,0,0,1,0-1.55h.38a.8.8,0,0,1,.73.88h.73a1.45,1.45,0,0,0-1.39-1.51s0-.48,0-.48h-.44v.48a1.45,1.45,0,0,0-1.18,2.28,1.47,1.47,0,0,0,.23.26,1.4,1.4,0,0,0,.94.3h.38a.79.79,0,0,1,.73.79.75.75,0,0,1-.73.76h-.38c-.39,0-.71-.49-.71-.88h-.73a1.56,1.56,0,0,0,1.44,1.57v.42h.44v-.44a1.33,1.33,0,0,0,1.4-1.42,1.46,1.46,0,0,0-.5-1.09"/><path class="cls-2" d="M27.29,28.79h-.36a.88.88,0,0,1-.85-.76v-.34H27v-.44h-.88v-.66H27v-.44h-.88V25.7c0-.45.46-.66.85-.66h.36a.82.82,0,0,1,.72.66h.73a1.44,1.44,0,0,0-1.45-1.33h-.36a1.5,1.5,0,0,0-1.52,1.43v.34H25v.44h.44v.66H25v.44h.44V28a1.51,1.51,0,0,0,1.52,1.42h.36a1.45,1.45,0,0,0,.56-.12l.13-.07a1.45,1.45,0,0,0,.38-.3,1.84,1.84,0,0,1-.41-.65.76.76,0,0,1-.66.48"/><path class="cls-2" d="M24.74,30.76A10.15,10.15,0,0,1,23.35,29h1.4Zm-4-1.74h1.84a10,10,0,0,0,1.18,1.64,6,6,0,0,1-3-1.64m-.57-.66a5.94,5.94,0,0,1-1-2h2.42a7.75,7.75,0,0,0,.61,2ZM19,24.81a6,6,0,0,1,.15-1.33h2.54a8.31,8.31,0,0,0-.17,1.75c0,.16,0,.31,0,.46H19.07a6,6,0,0,1-.07-.88m1.52-4h2.11a10.57,10.57,0,0,0-.79,2H19.34a6,6,0,0,1,1.18-2M23.84,19A12.42,12.42,0,0,0,23,20.17H21.22A6,6,0,0,1,23.84,19m.91,1.22h-.95a11.75,11.75,0,0,1,.95-1.28Zm0,2.65h-2.2a10.37,10.37,0,0,1,.86-2h1.35Zm.66-2h1.4a10.29,10.29,0,0,1,.86,2H25.41Zm0-2h0a11.48,11.48,0,0,1,1,1.31h-1Zm3.3,1.31H27.19A12.44,12.44,0,0,0,26.42,19a6,6,0,0,1,2.29,1.15m1.88,2.65H28.35a10.52,10.52,0,0,0-.79-2h1.84a6,6,0,0,1,1.18,2m-4.1,7.76.38-.47a2.18,2.18,0,0,1-.74-.14c-.22.27-.46.53-.72.79h0V29.51a2.08,2.08,0,0,1-.64-1.16H23a7.21,7.21,0,0,1-.68-2h2V25.7h-2.1c0-.15,0-.31,0-.47a7.57,7.57,0,0,1,.18-1.75h2.38v2h0a2.09,2.09,0,0,1,.63-1.16v-.83h2.42c0,.1,0,.21.06.31a2.2,2.2,0,0,1,.73.39c0-.24-.06-.47-.11-.7h2.27a6,6,0,0,1,.15,1.33c0,.07,0,.15,0,.22h0l0,.59a1.94,1.94,0,0,1,.59.34,6.7,6.7,0,0,0,.1-1.16,6.63,6.63,0,0,0-5.85-6.58s-.53,0-.78,0a6.63,6.63,0,1,0,3,12.56,2.16,2.16,0,0,1-.26-.62,5.86,5.86,0,0,1-1.18.46"/></svg>