<svg id="Layer_1" data-name="Layer 1" xmlns="http://www.w3.org/2000/svg" viewBox="0 0 50 50"><defs><style>.cls-1{fill:none;}.cls-2{fill:#ccc;}</style></defs><title>ico_volatilidad_gris</title><rect class="cls-1" width="50" height="50"/><path class="cls-2" d="M37.15,19.64l1.71,1.27.86-1.12L38,18.52Zm1.72-2.24,1.71,1.27.87-1.11-1.71-1.27Zm1.73-2.23,1.71,1.27.86-1.12-1.7-1.27Zm-5.18,6.7,1.71,1.27L38,22l-1.71-1.28Zm11.13-6.64-.32-3.18c0-.38-.1-.92-.13-1.2a.51.51,0,0,0-.57-.45l-1.23.12L41,10.84,39.91,11a.5.5,0,0,0-.36.59l.11,1.09c0,.31.23.54.45.52L41.2,13l1.73-.17.91-.09a.2.2,0,0,1,.22.15l.09.87.17,1.73c0,.39.09.87.12,1.09s.31.36.66.32l1.11-.11a.45.45,0,0,0,.45-.47c0-.24-.07-.74-.11-1.13M33.69,24.1l1.71,1.28.87-1.12L34.56,23ZM30.85,32a2.47,2.47,0,1,1,2.52-2.47A2.5,2.5,0,0,1,30.85,32M23,20.68a2.47,2.47,0,1,1,2.52-2.47A2.5,2.5,0,0,1,23,20.68M7.27,38.21a2.47,2.47,0,1,1,2.51-2.47,2.49,2.49,0,0,1-2.51,2.47M34.54,26.49l-1.71-1.27-.54.7a4,4,0,0,0-1.44-.27,4.17,4.17,0,0,0-.94.12l-3.77-5.25a3.78,3.78,0,0,0,.78-2.31,3.94,3.94,0,0,0-7.87,0A3.84,3.84,0,0,0,19.49,20L8.62,32.11a4,4,0,0,0-1.35-.23,3.87,3.87,0,1,0,3.94,3.86A3.78,3.78,0,0,0,10.76,34L21.63,21.84a4.08,4.08,0,0,0,1.35.24,4.4,4.4,0,0,0,.73-.07l3.87,5.37a3.79,3.79,0,0,0-.66,2.14A3.94,3.94,0,1,0,34,27.19Z"/></svg>