<svg id="Layer_1" data-name="Layer 1" xmlns="http://www.w3.org/2000/svg" viewBox="0 0 50 50"><defs><style>.cls-1{fill:none;}.cls-2{fill:#009ee5;}</style></defs><title>ico_lp_m_divisas</title><rect class="cls-1" width="50" height="50"/><path class="cls-2" d="M6.59,43.41H43.41V6.59H6.59ZM45,46.67H5A1.63,1.63,0,0,1,3.33,45V5A1.63,1.63,0,0,1,5,3.33H45A1.63,1.63,0,0,1,46.67,5V45A1.63,1.63,0,0,1,45,46.67"/><path class="cls-2" d="M33.47,24.27a2,2,0,0,0-1.31-.5h-.5a1.06,1.06,0,0,1,0-2.12h.52a1.09,1.09,0,0,1,1,1.21h1a2,2,0,0,0-1.9-2.08s0-.65,0-.65h-.61v.65a2,2,0,0,0-2,2,1.86,1.86,0,0,0,.06.48,1.89,1.89,0,0,0,.3.66,2.17,2.17,0,0,0,.32.36,2,2,0,0,0,1.29.41h.53a1.07,1.07,0,0,1,1,1.08,1,1,0,0,1-1,1h-.53c-.54,0-1-.67-1-1.21h-1a2.14,2.14,0,0,0,2,2.15v.58h.61v-.6a1.84,1.84,0,0,0,1.92-2,2,2,0,0,0-.7-1.5"/><path class="cls-2" d="M28.14,24.38h-.5a1.21,1.21,0,0,1-1.17-1.05v-.47h1.22v-.61H26.47v-.91h1.22v-.61H26.47v-.6c0-.62.63-.92,1.17-.92h.5a1.12,1.12,0,0,1,1,.92h1a2,2,0,0,0-2-1.83h-.5a2.06,2.06,0,0,0-2.08,2v.47H25v.61h.61v.91H25v.61h.61v.48a2.07,2.07,0,0,0,2.08,1.95h.5a2.16,2.16,0,0,0,.77-.16l.18-.1a1.75,1.75,0,0,0,.52-.42,2.56,2.56,0,0,1-.55-.89,1.06,1.06,0,0,1-.92.66"/><path class="cls-2" d="M24.65,27.08a13.42,13.42,0,0,1-1.92-2.39h1.92Zm-5.52-2.39h2.53a14.38,14.38,0,0,0,1.61,2.25,8.15,8.15,0,0,1-4.14-2.25m-.78-.92A8,8,0,0,1,17,21h3.32a10.38,10.38,0,0,0,.84,2.73Zm-1.6-4.86a8.32,8.32,0,0,1,.2-1.82h3.49a11.7,11.7,0,0,0-.23,2.4c0,.21,0,.43,0,.64H16.84a8.25,8.25,0,0,1-.09-1.22m2.09-5.47h2.91a14.23,14.23,0,0,0-1.09,2.74H17.22a8.15,8.15,0,0,1,1.62-2.74m4.56-2.59a16,16,0,0,0-1.14,1.68H19.8a8.24,8.24,0,0,1,3.6-1.68m1.25,1.68H23.34a15.52,15.52,0,0,1,1.31-1.76Zm0,3.65h-3a13.53,13.53,0,0,1,1.18-2.74h1.85Zm.91-2.74h1.92a14.12,14.12,0,0,1,1.18,2.74h-3.1Zm0-2.71h0a15.25,15.25,0,0,1,1.34,1.8H25.56Zm4.54,1.8H28A17.72,17.72,0,0,0,27,11a8.08,8.08,0,0,1,3.15,1.58m2.59,3.65H29.61a14.9,14.9,0,0,0-1.08-2.74h2.53a8.18,8.18,0,0,1,1.63,2.74M27.06,26.84c.18-.21.35-.42.52-.64a2.89,2.89,0,0,1-1-.2,14,14,0,0,1-1,1.09h0V25.37a2.89,2.89,0,0,1-.88-1.6H22.21A9.91,9.91,0,0,1,21.28,21H24v-.91H21.16c0-.22,0-.43,0-.64a9.87,9.87,0,0,1,.25-2.4h3.27v2.73h0a2.82,2.82,0,0,1,.87-1.59V17.09h3.33l.09.43a3,3,0,0,1,1,.53q-.06-.5-.15-1H33a7.75,7.75,0,0,1,.21,1.82c0,.1,0,.2,0,.3h0l-.05.82a2.73,2.73,0,0,1,.81.47,9.22,9.22,0,0,0,.14-1.59,9.11,9.11,0,0,0-8-9S25.3,9.79,25,9.79A9.12,9.12,0,1,0,29,27.07a2.94,2.94,0,0,1-.35-.86,7.77,7.77,0,0,1-1.62.63"/><polygon class="cls-2" points="16.96 37.81 16.96 30.04 17.54 30.04 17.54 37.32 21.59 37.32 21.59 37.81 16.96 37.81"/><path class="cls-2" d="M22.69,37.43a.42.42,0,0,1,.42-.43.44.44,0,0,1,.43.43.42.42,0,0,1-.43.42.41.41,0,0,1-.42-.42"/><path class="cls-2" d="M28.12,34.08h1.42c1.4,0,2.16-.47,2.16-1.8s-.83-1.75-2.16-1.75H28.12Zm-.59-4h2c1.66,0,2.75.58,2.75,2.22s-1,2.3-2.76,2.3H28.12v3.25h-.59Z"/><path class="cls-2" d="M32.19,37.43a.42.42,0,0,1,.42-.43.44.44,0,0,1,.43.43.42.42,0,0,1-.43.42.41.41,0,0,1-.42-.42"/></svg>