<svg id="Layer_1" data-name="Layer 1" xmlns="http://www.w3.org/2000/svg" viewBox="0 0 50 50"><defs><style>.cls-1{fill:none;}.cls-2{fill:#a60065;}</style></defs><title>ico_lp_a_renta</title><rect class="cls-1" width="50" height="50"/><path class="cls-2" d="M15,42.35H35L45,25,35,7.65H15L5,25ZM35.9,45.41H14.1a1.53,1.53,0,0,1-1.33-.77L1.87,25.77a1.53,1.53,0,0,1,0-1.53L12.77,5.35a1.53,1.53,0,0,1,1.33-.77H35.9a1.53,1.53,0,0,1,1.33.77l10.9,18.88a1.53,1.53,0,0,1,0,1.53L37.23,44.65a1.53,1.53,0,0,1-1.33.77"/><path class="cls-2" d="M25,14.83H19.13L25,11.34l5.87,3.49Zm5.42,10.89H28.61l-.45-9.59h2.71Zm-4.51,0H24.1l-.45-9.59h2.71Zm-4.51,0H19.58l-.45-9.59h2.71Zm11.74,0-.45-9.59h3.16L25,9.6,14.17,16.13h3.16l-.45,9.59H16l-1.81,2.61H35.83L34,25.72Z"/><polygon class="cls-2" points="16.96 37.81 16.96 30.04 17.54 30.04 17.54 37.32 21.59 37.32 21.59 37.81 16.96 37.81"/><path class="cls-2" d="M22.69,37.43a.42.42,0,0,1,.42-.43.44.44,0,0,1,.43.43.42.42,0,0,1-.43.42.41.41,0,0,1-.42-.42"/><path class="cls-2" d="M28.12,34.08h1.42c1.4,0,2.16-.47,2.16-1.8s-.83-1.75-2.16-1.75H28.12Zm-.59-4h2c1.66,0,2.75.58,2.75,2.22s-1,2.3-2.76,2.3H28.12v3.25h-.59Z"/><path class="cls-2" d="M32.19,37.43a.42.42,0,0,1,.42-.43.44.44,0,0,1,.43.43.42.42,0,0,1-.43.42.41.41,0,0,1-.42-.42"/></svg>