<svg id="Layer_1" data-name="Layer 1" xmlns="http://www.w3.org/2000/svg" viewBox="0 0 50 50"><defs><style>.cls-1{fill:none;}.cls-2{fill:#ccc;}</style></defs><title>ico_cp_a_renta_gris</title><rect class="cls-1" width="50" height="50"/><path class="cls-2" d="M15,42.35H35L45,25,35,7.65H15L5,25ZM35.9,45.41H14.1a1.54,1.54,0,0,1-1.33-.76L1.87,25.77a1.57,1.57,0,0,1,0-1.54L12.77,5.35a1.54,1.54,0,0,1,1.33-.76H35.9a1.54,1.54,0,0,1,1.33.76l10.9,18.88a1.57,1.57,0,0,1,0,1.54L37.23,44.65a1.54,1.54,0,0,1-1.33.76"/><path class="cls-2" d="M16.32,33.9c0-2.55,1.56-3.9,3.41-3.9a3.24,3.24,0,0,1,2.37.78v.47h-.28a2.61,2.61,0,0,0-2.05-.77c-1.61,0-2.84,1.16-2.84,3.4s1.07,3.49,2.75,3.49A2.94,2.94,0,0,0,22,36.45h.26v.45a3.51,3.51,0,0,1-2.56,1c-2,0-3.35-1.4-3.35-4"/><path class="cls-2" d="M23.33,37.43a.42.42,0,0,1,.42-.43.44.44,0,0,1,.43.43.42.42,0,0,1-.43.42.4.4,0,0,1-.42-.42"/><path class="cls-2" d="M28.76,34.08h1.42c1.39,0,2.16-.47,2.16-1.8s-.83-1.75-2.16-1.75H28.76Zm-.59-4h2c1.66,0,2.75.58,2.75,2.22s-1,2.3-2.76,2.3H28.76v3.25h-.59Z"/><path class="cls-2" d="M32.83,37.43a.42.42,0,0,1,.42-.43.44.44,0,0,1,.43.43.42.42,0,0,1-.43.42.41.41,0,0,1-.42-.42"/><path class="cls-2" d="M25,14.83H19.13L25,11.34l5.87,3.49Zm5.42,10.89H28.61l-.45-9.59h2.71Zm-4.52,0H24.1l-.45-9.59h2.7Zm-4.51,0H19.58l-.45-9.59h2.71Zm11.74,0-.46-9.59h3.16L25,9.6,14.17,16.13h3.16l-.46,9.59H16l-1.8,2.61H35.83L34,25.72Z"/></svg>