<svg id="Layer_1" data-name="Layer 1" xmlns="http://www.w3.org/2000/svg" viewBox="0 0 50 50"><defs><style>.cls-1{fill:#a60065;}.cls-2{fill:none;}</style></defs><title>ico_cp_a_deuda</title><path class="cls-1" d="M15,42.35H35L45,25,35,7.65H15L5,25ZM35.9,45.41H14.1a1.53,1.53,0,0,1-1.33-.77L1.87,25.77a1.53,1.53,0,0,1,0-1.53L12.77,5.35a1.53,1.53,0,0,1,1.33-.77H35.9a1.53,1.53,0,0,1,1.33.77l10.9,18.88a1.53,1.53,0,0,1,0,1.53L37.23,44.65a1.53,1.53,0,0,1-1.33.77"/><path class="cls-1" d="M16.32,33.9c0-2.55,1.56-3.9,3.42-3.9a3.25,3.25,0,0,1,2.36.78v.48h-.28a2.6,2.6,0,0,0-2.05-.78c-1.61,0-2.84,1.16-2.84,3.4s1.08,3.49,2.75,3.49a3,3,0,0,0,2.3-.92h.26v.44a3.52,3.52,0,0,1-2.56,1c-2,0-3.35-1.4-3.35-3.95"/><path class="cls-1" d="M23.33,37.43a.42.42,0,0,1,.42-.43.44.44,0,0,1,.43.43.42.42,0,0,1-.43.42.41.41,0,0,1-.42-.42"/><path class="cls-1" d="M28.76,34.08h1.42c1.4,0,2.16-.47,2.16-1.8s-.83-1.75-2.16-1.75H28.76Zm-.59-4h2c1.66,0,2.75.58,2.75,2.22s-1,2.3-2.76,2.3H28.76v3.25h-.59Z"/><path class="cls-1" d="M32.83,37.43a.42.42,0,0,1,.42-.43.44.44,0,0,1,.43.43.42.42,0,0,1-.43.42.41.41,0,0,1-.42-.42"/><path class="cls-1" d="M35.82,18.33a.53.53,0,0,0,0-.31.54.54,0,0,0-.53-.45h-.09a.53.53,0,0,0-.33.2l-.07.12L29,26.9h1.27l5.52-8.47Z"/><path class="cls-1" d="M31,19.72a1,1,0,1,1-1-1,1,1,0,0,1,1,1m-3.11,0a2.14,2.14,0,1,0,2.14-2.14,2.14,2.14,0,0,0-2.14,2.14"/><path class="cls-1" d="M35.11,25.75a1,1,0,1,1,1-1,1,1,0,0,1-1,1m0-3.11a2.14,2.14,0,1,0,2.14,2.14,2.14,2.14,0,0,0-2.14-2.14"/><path class="cls-1" d="M22,19.23H14.7l.65-3.11h6.88Zm6.86,5.83.51-.78H26.75v-.78h3.1l.26-.44,0,0a3.35,3.35,0,0,1-.38,0l-.38-.07-.38-.12a3.16,3.16,0,0,1-.42-.14v0H26.75V22h.78v0c0-.11-.18-.26-.26-.39a1.67,1.67,0,0,1-.13-.44v.09h-.39V20.4h.39s0-1.26,0-1.26v.09h-.66l-.26-3.11h6.86l.38,1.79.39-.63.09-.17,0-.06a1.59,1.59,0,0,1,.62-.44L34.14,15H26l-.09-.39h-3.3l-.09.39H14.31L12.75,20.4h8.94v.78H12.75V22h8.94v.78H12.75v.78h8.94v.78H12.75v.78h8.94v.78H12.75v.78h8.94V27h5.06v-.53l1.1,0,.47-.68H26.75v-.78Z"/><rect class="cls-2" width="50" height="50"/></svg>