<svg id="Layer_1" data-name="Layer 1" xmlns="http://www.w3.org/2000/svg" viewBox="0 0 50 50"><defs><style>.cls-1{fill:none;}.cls-2{fill:#88bee8;}</style></defs><title>ico_cp_m_renta</title><rect class="cls-1" width="50" height="50"/><path class="cls-2" d="M6.59,43.41H43.41V6.59H6.59ZM45,46.67H5A1.63,1.63,0,0,1,3.33,45V5A1.63,1.63,0,0,1,5,3.33H45A1.63,1.63,0,0,1,46.67,5V45A1.63,1.63,0,0,1,45,46.67"/><path class="cls-2" d="M16.32,33.9c0-2.55,1.56-3.9,3.42-3.9a3.25,3.25,0,0,1,2.36.78v.48h-.28a2.6,2.6,0,0,0-2.05-.78c-1.61,0-2.84,1.16-2.84,3.4s1.08,3.49,2.75,3.49a3,3,0,0,0,2.3-.92h.26v.44a3.52,3.52,0,0,1-2.56,1c-2,0-3.35-1.4-3.35-3.95"/><path class="cls-2" d="M23.33,37.43a.42.42,0,0,1,.42-.43.44.44,0,0,1,.43.43.42.42,0,0,1-.43.42.41.41,0,0,1-.42-.42"/><path class="cls-2" d="M28.76,34.08h1.42c1.4,0,2.16-.47,2.16-1.8s-.83-1.75-2.16-1.75H28.76Zm-.59-4h2c1.66,0,2.75.58,2.75,2.22s-1,2.3-2.76,2.3H28.76v3.25h-.59Z"/><path class="cls-2" d="M32.83,37.43a.42.42,0,0,1,.42-.43.44.44,0,0,1,.43.43.42.42,0,0,1-.43.42.41.41,0,0,1-.42-.42"/><path class="cls-2" d="M25,14.83H19.13L25,11.34l5.87,3.49Zm5.42,10.89H28.61l-.45-9.59h2.71Zm-4.51,0H24.1l-.45-9.59h2.71Zm-4.51,0H19.58l-.45-9.59h2.71Zm11.74,0-.45-9.59h3.16L25,9.6,14.17,16.13h3.16l-.45,9.59H16l-1.81,2.61H35.83L34,25.72Z"/></svg>