<svg id="Layer_1" data-name="Layer 1" xmlns="http://www.w3.org/2000/svg" viewBox="0 0 50 50"><defs><style>.cls-1{fill:none;}.cls-2{fill:#ccc;}</style></defs><title>ico_cp_b_divisas_gris</title><rect class="cls-1" width="50" height="50"/><path class="cls-2" d="M7.6,43.54H42.4L25,8.5ZM45,46.81H5A1.64,1.64,0,0,1,3.58,46a1.62,1.62,0,0,1-.08-1.58l20-40.35a1.63,1.63,0,0,1,2.92,0l20,40.35A1.62,1.62,0,0,1,46.42,46a1.64,1.64,0,0,1-1.39.78"/><path class="cls-2" d="M16.32,37.24c0-2.55,1.56-3.91,3.41-3.91a3.24,3.24,0,0,1,2.37.78v.48h-.28a2.58,2.58,0,0,0-2.05-.78c-1.61,0-2.84,1.16-2.84,3.4s1.07,3.5,2.75,3.5A3,3,0,0,0,22,39.79h.26v.44a3.51,3.51,0,0,1-2.56,1c-2,0-3.35-1.39-3.35-3.94"/><path class="cls-2" d="M23.33,40.76a.42.42,0,0,1,.42-.43.44.44,0,0,1,.43.43.42.42,0,0,1-.43.42.4.4,0,0,1-.42-.42"/><path class="cls-2" d="M28.76,37.41h1.42c1.39,0,2.16-.46,2.16-1.79s-.83-1.75-2.16-1.75H28.76Zm-.59-4h2c1.66,0,2.75.57,2.75,2.22s-1,2.29-2.76,2.29H28.76v3.25h-.59Z"/><path class="cls-2" d="M32.83,40.76a.42.42,0,0,1,.42-.43.44.44,0,0,1,.43.43.42.42,0,0,1-.43.42.4.4,0,0,1-.42-.42"/><path class="cls-2" d="M31.16,28.72a1.42,1.42,0,0,0-1-.37h-.36a.78.78,0,0,1,0-1.55h.37a.8.8,0,0,1,.73.89h.73a1.46,1.46,0,0,0-1.39-1.52V25.7h-.44v.47a1.46,1.46,0,0,0-1.44,1.46,2,2,0,0,0,0,.35,1.61,1.61,0,0,0,.22.48,2.85,2.85,0,0,0,.23.26,1.37,1.37,0,0,0,.94.29h.38a.78.78,0,0,1,.73.8.74.74,0,0,1-.73.75h-.38c-.39,0-.71-.49-.71-.88h-.72a1.55,1.55,0,0,0,1.44,1.56v.43h.44v-.45a1.32,1.32,0,0,0,1.4-1.41,1.45,1.45,0,0,0-.51-1.09"/><path class="cls-2" d="M27.29,28.79h-.37a.88.88,0,0,1-.85-.76v-.34H27v-.44h-.88v-.67H27v-.44h-.88V25.7c0-.45.46-.67.85-.67h.37a.84.84,0,0,1,.72.67h.72a1.44,1.44,0,0,0-1.44-1.33h-.37a1.49,1.49,0,0,0-1.51,1.43v.34H25v.44h.44v.67H25v.44h.44V28a1.51,1.51,0,0,0,1.51,1.43h.37a1.31,1.31,0,0,0,.55-.13l.13-.06a1.48,1.48,0,0,0,.39-.31,1.79,1.79,0,0,1-.41-.65.75.75,0,0,1-.66.48"/><path class="cls-2" d="M24.74,30.76A10.45,10.45,0,0,1,23.35,29h1.39Zm-4-1.75h1.84a10,10,0,0,0,1.17,1.65,6,6,0,0,1-3-1.65m-.56-.66a6,6,0,0,1-1-2h2.42a7.5,7.5,0,0,0,.61,2ZM19,24.81a5.74,5.74,0,0,1,.15-1.32h2.54a7.64,7.64,0,0,0-.17,1.75c0,.15,0,.3,0,.46H19.07a5.26,5.26,0,0,1-.07-.89m1.52-4h2.11a11.31,11.31,0,0,0-.79,2h-2.5a6.07,6.07,0,0,1,1.18-2M23.84,19A13.16,13.16,0,0,0,23,20.17H21.22A6,6,0,0,1,23.84,19m.9,1.22h-.95a14.12,14.12,0,0,1,.95-1.28Zm0,2.65h-2.2a10.74,10.74,0,0,1,.86-2h1.34Zm.67-2H26.8a10.1,10.1,0,0,1,.86,2H25.41Zm0-2h0a14.43,14.43,0,0,1,1,1.31h-1Zm3.3,1.31H27.19c-.27-.45-.54-.84-.77-1.15a6.11,6.11,0,0,1,2.29,1.15m1.88,2.65H28.35a10,10,0,0,0-.79-2h1.85a6.07,6.07,0,0,1,1.18,2M26.5,30.58c.13-.15.25-.31.37-.46a2.26,2.26,0,0,1-.73-.15,10.5,10.5,0,0,1-.72.79h0V29.51a2.1,2.1,0,0,1-.64-1.16H23a7.33,7.33,0,0,1-.68-2h2V25.7H22.21c0-.16,0-.31,0-.47a7.09,7.09,0,0,1,.19-1.74h2.37v2h0a2.1,2.1,0,0,1,.64-1.16v-.83h2.42l.06.31a2.14,2.14,0,0,1,.73.39c0-.24-.06-.47-.11-.7h2.27a5.74,5.74,0,0,1,.15,1.32,1.55,1.55,0,0,1,0,.22h0l0,.6a2,2,0,0,1,.59.34,6.25,6.25,0,0,0,.11-1.16,6.64,6.64,0,0,0-5.85-6.58,7.62,7.62,0,0,0-.78-.05,6.64,6.64,0,1,0,0,13.27,6.56,6.56,0,0,0,3-.71,2.31,2.31,0,0,1-.25-.61,6.24,6.24,0,0,1-1.18.45"/></svg>