<svg id="Layer_1" data-name="Layer 1" xmlns="http://www.w3.org/2000/svg" viewBox="0 0 50 50"><defs><style>.cls-1{fill:none;}.cls-2{fill:#bababa;}</style></defs><title>ico_lp_m_deuda_gris</title><rect class="cls-1" width="50" height="50"/><path class="cls-2" d="M6.59,43.41H43.41V6.59H6.59ZM45,46.67H5A1.63,1.63,0,0,1,3.33,45V5A1.63,1.63,0,0,1,5,3.33H45A1.63,1.63,0,0,1,46.67,5V45A1.63,1.63,0,0,1,45,46.67"/><path class="cls-2" d="M35.82,18.33a.54.54,0,0,0-.49-.76h-.08a.53.53,0,0,0-.34.19l-.07.13L29,26.9h1.27l5.52-8.47Z"/><path class="cls-2" d="M31,19.72a1,1,0,1,1-1-1,1,1,0,0,1,1,1m-3.11,0a2.14,2.14,0,1,0,2.14-2.14,2.14,2.14,0,0,0-2.14,2.14"/><path class="cls-2" d="M35.11,25.75a1,1,0,1,1,1-1,1,1,0,0,1-1,1m0-3.11a2.14,2.14,0,1,0,2.14,2.14,2.14,2.14,0,0,0-2.14-2.14"/><path class="cls-2" d="M22,19.23H14.7l.64-3.11h6.89Zm6.86,5.84.51-.78H26.75v-.78h3.1l.25-.44,0,0c-.13,0-.26,0-.39,0l-.37-.08a3.86,3.86,0,0,1-.38-.12,4.33,4.33,0,0,1-.42-.13v0H26.75V22h.78v0c0-.12-.18-.26-.27-.39a2,2,0,0,1-.12-.44v.1h-.39V20.4h.39s0-1.26,0-1.26v.09h-.66l-.26-3.11h6.86l.39,1.79.39-.63.09-.16,0-.07a1.58,1.58,0,0,1,.62-.43L34.14,15H26l-.09-.39h-3.3l-.08.39H14.31L12.75,20.4h8.94v.78H12.75V22h8.94v.78H12.75v.78h8.94v.78H12.75v.78h8.94v.77H12.75v.78h8.94V27h5.06v-.53l1.1,0,.48-.68H26.75v-.77Z"/><polygon class="cls-2" points="16.96 37.81 16.96 30.04 17.54 30.04 17.54 37.32 21.59 37.32 21.59 37.81 16.96 37.81"/><path class="cls-2" d="M22.69,37.43a.42.42,0,0,1,.42-.43.44.44,0,0,1,.43.43.42.42,0,0,1-.43.42.41.41,0,0,1-.42-.42"/><path class="cls-2" d="M28.12,34.08h1.42c1.4,0,2.16-.47,2.16-1.8s-.83-1.75-2.16-1.75H28.12Zm-.59-4h2c1.66,0,2.75.58,2.75,2.22s-1,2.3-2.76,2.3H28.12v3.25h-.59Z"/><path class="cls-2" d="M32.19,37.43a.42.42,0,0,1,.42-.43.44.44,0,0,1,.43.43.42.42,0,0,1-.43.42.41.41,0,0,1-.42-.42"/></svg>